<svg width="132" height="52" viewBox="0 0 132 52" fill="none" xmlns="http://www.w3.org/2000/svg">
<path d="M14.2718 41.535C11.6088 41.535 9.2364 41.147 7.20288 40.3225C5.16936 39.5465 3.23268 38.237 1.34441 36.491C1.10232 36.297 0.860238 36.006 0.714986 35.6665C0.569735 35.327 0.4729 34.9875 0.4729 34.648C0.4729 34.066 0.66657 33.5325 1.10232 33.096C1.53808 32.6595 2.02225 32.417 2.65167 32.417C3.13584 32.417 3.62002 32.611 4.00735 32.999C5.41145 34.357 6.9608 35.424 8.60698 36.1515C10.2532 36.879 12.093 37.2185 14.175 37.2185C15.7727 37.2185 17.1768 36.976 18.4841 36.4425C19.7429 35.9575 20.7597 35.23 21.5343 34.3085C22.309 33.387 22.6964 32.3685 22.6964 31.156C22.6964 29.701 22.309 28.4885 21.4859 27.567C20.6629 26.6455 19.5493 25.821 18.0967 25.239C16.6442 24.6085 14.998 24.075 13.1098 23.59C11.4636 23.202 9.91424 22.717 8.51014 22.135C7.10604 21.553 5.89562 20.874 4.87886 20.001C3.8621 19.128 3.03901 18.1095 2.50642 16.897C1.92541 15.6845 1.68333 14.2295 1.68333 12.5805C1.68333 10.495 2.21591 8.70054 3.32951 7.14854C4.39469 5.59654 5.94404 4.38404 7.88072 3.51104C9.81741 2.63804 12.0446 2.20154 14.5623 2.20154C16.7895 2.20154 18.8714 2.54104 20.8565 3.26854C22.8416 3.99604 24.4394 5.01454 25.6014 6.27554C26.3277 6.95454 26.6666 7.63354 26.6666 8.36104C26.6666 8.84604 26.4245 9.33104 25.9887 9.81604C25.553 10.2525 25.0204 10.495 24.4394 10.495C24.052 10.495 23.6647 10.3495 23.3742 10.107C22.7448 9.42804 21.9701 8.79754 21.0018 8.26404C20.0334 7.73054 19.0167 7.29404 17.9031 6.95454C16.7895 6.61504 15.6759 6.46954 14.5623 6.46954C12.9161 6.46954 11.4152 6.71204 10.1563 7.19704C8.89748 7.68204 7.88072 8.36104 7.20288 9.23404C6.47662 10.107 6.1377 11.174 6.1377 12.3865C6.1377 13.7445 6.52504 14.9085 7.34813 15.7815C8.12281 16.6545 9.2364 17.382 10.5437 17.964C11.8993 18.546 13.3519 19.031 14.998 19.4675C16.7895 19.904 18.4357 20.389 19.9366 20.971C21.4375 21.553 22.7448 22.232 23.81 23.0565C24.8751 23.881 25.7467 24.948 26.3277 26.2575C26.9087 27.567 27.2476 29.119 27.2476 31.0105C27.2476 32.999 26.6666 34.7935 25.553 36.3455C24.4394 37.8975 22.89 39.1585 20.9534 40.0315C18.9198 41.0985 16.6926 41.535 14.2718 41.535Z" fill="white"/>
<path d="M47.2438 12.435C49.6162 12.435 51.5045 12.9685 52.9086 13.987C54.3127 15.0055 55.281 16.412 55.9105 18.1095C56.4915 19.8555 56.8304 21.747 56.8304 23.8325V38.7705C56.8304 39.401 56.6367 39.9345 56.201 40.371C55.7652 40.8075 55.2811 41.0015 54.6516 41.0015C54.0222 41.0015 53.4896 40.8075 53.0539 40.371C52.6665 39.9345 52.4729 39.401 52.4729 38.7705V23.8325C52.4729 22.4745 52.2792 21.262 51.8918 20.1465C51.5045 19.031 50.8267 18.1095 49.9067 17.4305C48.9868 16.7515 47.728 16.412 46.1302 16.412C44.6293 16.412 43.2736 16.7515 42.0632 17.4305C40.8528 18.1095 39.836 18.9825 39.1097 20.1465C38.3835 21.262 38.0446 22.523 38.0446 23.8325V38.7705C38.0446 39.401 37.8509 39.9345 37.4151 40.371C36.9794 40.8075 36.4952 41.0015 35.8658 41.0015C35.2364 41.0015 34.7522 40.8075 34.3164 40.371C33.8807 39.9345 33.687 39.401 33.687 38.7705V2.929C33.687 2.2985 33.8807 1.765 34.3164 1.3285C34.7522 0.891998 35.2364 0.697998 35.8658 0.697998C36.4952 0.697998 37.0278 0.891998 37.4636 1.3285C37.8509 1.765 38.0446 2.2985 38.0446 2.929V19.1765L36.9794 20.389C37.1731 19.4675 37.5604 18.4975 38.1898 17.5275C38.8192 16.5575 39.5939 15.6845 40.5138 14.957C41.4338 14.181 42.4989 13.599 43.6609 13.114C44.7261 12.629 45.9365 12.435 47.2438 12.435Z" fill="white"/>
<path d="M66.8043 8.74899C65.8844 8.74899 65.2065 8.55499 64.7708 8.21549C64.335 7.87599 64.1414 7.29399 64.1414 6.51799V5.74199C64.1414 4.96599 64.3834 4.43249 64.8676 4.04449C65.3518 3.70499 66.0296 3.51099 66.9011 3.51099C67.7727 3.51099 68.4021 3.70499 68.8378 4.04449C69.2736 4.38399 69.4673 4.96599 69.4673 5.74199V6.51799C69.4673 7.29399 69.2252 7.82749 68.7894 8.21549C68.3052 8.60349 67.6758 8.74899 66.8043 8.74899ZM69.0315 38.7705C69.0315 39.401 68.8378 39.9345 68.4021 40.371C67.9663 40.8075 67.4822 41.0015 66.8527 41.0015C66.2233 41.0015 65.6423 40.8075 65.255 40.371C64.8192 39.9345 64.6255 39.401 64.6255 38.7705V14.666C64.6255 14.0355 64.8192 13.502 65.255 13.0655C65.6907 12.629 66.2233 12.435 66.8527 12.435C67.4822 12.435 67.9663 12.629 68.4021 13.0655C68.8378 13.502 69.0315 14.0355 69.0315 14.666V38.7705Z" fill="white"/>
<path d="M90.8192 12.144C93.2885 12.144 95.2252 12.629 96.6293 13.6475C98.0334 14.666 99.0501 16.024 99.6311 17.7215C100.212 19.419 100.551 21.359 100.551 23.493V38.722C100.551 39.3526 100.357 39.8861 99.9216 40.3226C99.4859 40.7591 99.0017 40.9531 98.3723 40.9531C97.7429 40.9531 97.2103 40.7591 96.7745 40.3226C96.3872 39.8861 96.1935 39.3526 96.1935 38.722V23.6385C96.1935 22.2805 95.9999 21.0195 95.5641 19.904C95.1283 18.7885 94.4505 17.867 93.4822 17.188C92.5138 16.509 91.2065 16.1695 89.5604 16.1695C88.0594 16.1695 86.6553 16.509 85.3965 17.188C84.1377 17.867 83.1209 18.74 82.3462 19.904C81.5715 21.0195 81.1842 22.2805 81.1842 23.6385V38.7706C81.1842 39.4011 80.9905 39.9346 80.5548 40.3711C80.119 40.8076 79.6349 41.0015 79.0054 41.0015C78.376 41.0015 77.8918 40.8076 77.4561 40.3711C77.0203 39.9346 76.8267 39.4011 76.8267 38.7706V15.1025C76.8267 14.472 77.0203 13.89 77.4561 13.502C77.8918 13.0655 78.376 12.8715 79.0054 12.8715C79.6349 12.8715 80.1674 13.0655 80.6032 13.502C80.9905 13.9385 81.1842 14.472 81.1842 15.1025V18.934L80.119 20.1465C80.3127 19.225 80.7 18.255 81.3779 17.285C82.0073 16.315 82.8304 15.442 83.8471 14.7145C84.8155 13.9385 85.9291 13.3565 87.0911 12.8715C88.2531 12.3865 89.5119 12.144 90.8192 12.144Z" fill="white"/>
<path d="M129.359 12.4351C129.989 12.4351 130.473 12.6291 130.909 13.0656C131.344 13.5021 131.538 14.0356 131.538 14.6661V38.3341C131.538 41.4381 130.957 43.9601 129.747 45.9486C128.536 47.9371 126.939 49.4406 124.953 50.4106C122.92 51.3806 120.644 51.8656 118.127 51.8656C116.723 51.8656 115.367 51.7201 114.06 51.4291C112.752 51.1381 111.687 50.7501 110.864 50.2651C110.186 49.9256 109.702 49.5376 109.412 49.0526C109.121 48.5676 109.073 48.0341 109.315 47.5006C109.557 46.8701 109.944 46.3851 110.428 46.1426C110.912 45.9001 111.445 45.9001 111.978 46.1426C112.559 46.3851 113.382 46.7731 114.495 47.2096C115.609 47.6461 116.819 47.8886 118.223 47.8886C120.112 47.8886 121.709 47.5491 123.065 46.8216C124.421 46.0941 125.438 45.0271 126.164 43.6206C126.89 42.2141 127.229 40.4681 127.229 38.4311V34.5996L127.81 35.9091C127.277 37.0731 126.503 38.0916 125.534 38.9161C124.566 39.7406 123.404 40.4196 122.145 40.8561C120.838 41.2926 119.482 41.5351 117.981 41.5351C115.899 41.5351 114.108 41.0986 112.704 40.1771C111.251 39.3041 110.186 38.0431 109.46 36.4911C108.734 34.8906 108.395 33.0961 108.395 31.0591V14.6661C108.395 14.0356 108.588 13.5021 109.024 13.0656C109.46 12.6291 109.944 12.4351 110.574 12.4351C111.203 12.4351 111.736 12.6291 112.171 13.0656C112.559 13.5021 112.752 14.0356 112.752 14.6661V30.0891C112.752 32.5626 113.285 34.4056 114.398 35.6666C115.464 36.9276 117.158 37.5581 119.434 37.5581C120.886 37.5581 122.194 37.2186 123.356 36.5881C124.518 35.9576 125.438 35.0361 126.164 33.8721C126.89 32.7081 127.229 31.4471 127.229 30.0891V14.6661C127.229 14.0356 127.423 13.5021 127.858 13.0656C128.197 12.6291 128.73 12.4351 129.359 12.4351Z" fill="white"/>
</svg>
