<svg width="79" height="81" viewBox="0 0 79 81" fill="none" xmlns="http://www.w3.org/2000/svg">
<path d="M77.2029 37.493C53.9626 30.1695 44.957 13.5825 41.471 2.28201C40.7448 0.00251269 37.5008 0.00251269 36.7746 2.28201C29.8509 24.592 13.2438 33.807 1.86579 37.5415C-0.409811 38.269 -0.361395 41.5185 1.91421 42.1975C23.1693 48.5995 32.6107 66.69 36.5809 78.4755C37.3556 80.8035 40.5995 80.658 41.2773 78.33C47.6684 54.7105 65.3407 45.641 77.106 42.1975C79.43 41.5185 79.4785 38.2205 77.2029 37.493ZM52.5101 40.985C48.4431 42.1975 42.3425 45.3015 40.1153 53.498C39.8732 54.3225 38.7597 54.371 38.5176 53.5465C37.1619 49.4725 33.9179 43.216 26.5585 40.985C25.7839 40.7425 25.7354 39.627 26.5585 39.3845C30.4803 38.075 36.242 34.9225 38.6144 27.211C38.8565 26.435 39.9701 26.435 40.2122 27.211C41.4226 31.091 44.5213 36.8625 52.5585 39.3845C53.3332 39.627 53.3332 40.7425 52.5101 40.985Z" fill="url(#paint0_linear)"/>
<defs>
<linearGradient id="paint0_linear" x1="7.49743" y1="25.1651" x2="78.4502" y2="59.2283" gradientUnits="userSpaceOnUse">
<stop stop-color="#5931BA"/>
<stop offset="1" stop-color="#597EBA"/>
</linearGradient>
</defs>
</svg>
